<svg width="56" height="21" viewBox="0 0 56 21" fill="none" xmlns="http://www.w3.org/2000/svg">
<g clip-path="url(#clip0_649_233)">
<path d="M13.0258 11.3187C13.0027 8.78791 15.0061 7.57198 15.0962 7.51408C13.9686 5.79394 12.2171 5.55751 11.5932 5.53097C10.1028 5.37174 8.68402 6.44774 7.9261 6.44774C7.16819 6.44774 6.00129 5.55268 4.76506 5.57922C3.13832 5.60335 1.63867 6.56595 0.799882 8.08585C-0.886934 11.1401 0.370091 15.6757 2.01763 18.1582C2.82406 19.3717 3.7807 20.7397 5.04234 20.689C6.25777 20.6383 6.71529 19.8687 8.18028 19.8687C9.64527 19.8687 10.0589 20.689 11.3413 20.6649C12.6469 20.6383 13.4741 19.4248 14.2736 18.2065C15.1933 16.7951 15.5745 15.4321 15.5977 15.3597C15.5676 15.3476 13.0536 14.3416 13.0258 11.3187Z" fill="white"/>
<path d="M10.6153 3.88562C11.2854 3.03881 11.736 1.8639 11.6135 0.691406C10.6499 0.73242 9.48303 1.36209 8.79213 2.2089C8.17286 2.95679 7.62984 4.15341 7.77773 5.30178C8.84759 5.38863 9.94748 4.73001 10.6153 3.88562ZM21.4756 13.806L20.3665 17.3163H18.9408L22.5709 6.16065H24.2346L27.8786 17.3163H26.4043L25.2629 13.806H21.4756ZM24.9786 12.6793L23.9342 9.46825C23.6962 8.73966 23.5391 8.07862 23.3796 7.43206H23.3496C23.1901 8.0931 23.0168 8.77102 22.8112 9.45136L21.7668 12.6769L24.9786 12.6793ZM28.96 11.9194C28.96 10.8941 28.9299 10.0641 28.8953 9.30419H30.1477L30.2124 10.6793H30.2424C30.8132 9.70226 31.7167 9.12325 32.9691 9.12325C34.8246 9.12325 36.2179 10.7614 36.2179 13.1956C36.2179 16.0762 34.538 17.4972 32.7311 17.4972C31.7167 17.4972 30.8293 17.034 30.3695 16.2403H30.3395V20.5925H28.96V11.9194V11.9194ZM30.3372 14.0545C30.3372 14.2716 30.3672 14.467 30.4019 14.6504C30.656 15.6588 31.4948 16.3561 32.4954 16.3561C33.9696 16.3561 34.8269 15.0991 34.8269 13.2608C34.8269 11.654 34.0181 10.2837 32.5439 10.2837C31.5942 10.2837 30.7069 10.9954 30.4342 12.0883C30.3857 12.2692 30.3395 12.4863 30.3395 12.6842L30.3372 14.0545ZM37.6598 11.9194C37.6598 10.8941 37.6298 10.0641 37.5951 9.30419H38.8475L38.9122 10.6793H38.9422C39.513 9.70226 40.4165 9.12325 41.6689 9.12325C43.5244 9.12325 44.9177 10.7614 44.9177 13.1956C44.9177 16.0762 43.2378 17.4972 41.4309 17.4972C40.4165 17.4972 39.5292 17.034 39.0693 16.2403H39.0393V20.5925H37.6598V11.9194V11.9194ZM39.0393 14.0545C39.0393 14.2716 39.0693 14.467 39.104 14.6504C39.3582 15.6588 40.197 16.3561 41.1975 16.3561C42.6717 16.3561 43.529 15.0991 43.529 13.2608C43.529 11.654 42.7202 10.2837 41.246 10.2837C40.2963 10.2837 39.409 10.9954 39.1363 12.0883C39.0878 12.2692 39.0416 12.4863 39.0416 12.6842L39.0393 14.0545ZM46.3619 5.56475H47.7576V17.3138H46.3619V5.56475ZM50.5628 13.5744C50.5928 15.543 51.799 16.3561 53.1924 16.3561C54.1906 16.3561 54.7937 16.1751 55.3159 15.9435L55.5539 16.9857C55.064 17.2173 54.223 17.4827 53.0029 17.4827C50.6414 17.4827 49.2295 15.8615 49.2295 13.4441C49.2295 11.0267 50.5928 9.12325 52.8273 9.12325C55.3321 9.12325 55.9976 11.4224 55.9976 12.8965C55.9976 13.1956 55.9675 13.4248 55.9491 13.5744H50.5628ZM54.6527 12.5322C54.6689 11.6058 54.2877 10.1655 52.7187 10.1655C51.3068 10.1655 50.6899 11.5237 50.579 12.5322H54.6527V12.5322Z" fill="white"/>
</g>
<defs>
<clipPath id="clip0_649_233">
<rect width="56" height="20" fill="white" transform="translate(0 0.691406)"/>
</clipPath>
</defs>
</svg>
